<?xml version="1.0" encoding="UTF-8" standalone="no"?>
<svg width="25px" height="24px" viewBox="0 0 25 24" version="1.1" xmlns="http://www.w3.org/2000/svg" xmlns:xlink="http://www.w3.org/1999/xlink">
    <!-- Generator: Sketch 39.1 (31720) - http://www.bohemiancoding.com/sketch -->
    <title>github</title>
    <desc>Created with Sketch.</desc>
    <defs></defs>
    <g id="Page-1" stroke="none" stroke-width="1" fill="none" fill-rule="evenodd">
        <g id="github" fill="#151513">
            <g id="Page-1">
                <g id="GitHub-Mark">
                    <path d="M12.339427,0.455758351 C5.70276628,0.455758351 0.320533346,5.83725338 0.320533346,12.4761278 C0.320533346,17.7867845 3.76430646,22.2916559 8.54072458,23.8810897 C9.142112,23.9917745 9.36126791,23.6206114 9.36126791,23.3018392 C9.36126791,23.0170103 9.35093732,22.2606642 9.34503413,21.2578599 C6.00161524,21.9839522 5.29618411,19.6462892 5.29618411,19.6462892 C4.74940119,18.2575639 3.96132541,17.8878766 3.96132541,17.8878766 C2.86997327,17.142599 4.04397006,17.1573569 4.04397006,17.1573569 C5.25043439,17.2422153 5.88502725,18.3962888 5.88502725,18.3962888 C6.95719402,20.2329186 8.6986349,19.7023695 9.38340487,19.3946657 C9.49261387,18.6183963 9.80326921,18.0885851 10.1463921,17.7882603 C7.47741259,17.484984 4.67118393,16.4534016 4.67118393,11.8474381 C4.67118393,10.5354542 5.13974959,9.46181167 5.90864001,8.62208298 C5.78467303,8.31806873 5.37218767,7.09537062 6.0267038,5.4410018 C6.0267038,5.4410018 7.03541128,5.11780218 9.33175196,6.67329258 C10.2902823,6.40617326 11.3189131,6.2733515 12.3409028,6.26818621 C13.3621545,6.2733515 14.3900474,6.40617326 15.3500535,6.67329258 C17.6449184,5.11780218 18.6521501,5.4410018 18.6521501,5.4410018 C19.308142,7.09537062 18.8956567,8.31806873 18.7724276,8.62208298 C19.5427938,9.46181167 20.00767,10.5354542 20.00767,11.8474381 C20.00767,16.465208 17.1970139,17.4812945 14.5199175,17.7786676 C14.9508504,18.1498307 15.3352956,18.8833019 15.3352956,20.0049079 C15.3352956,21.6113133 15.3205376,22.9078013 15.3205376,23.3018392 C15.3205376,23.623563 15.5374798,23.9976777 16.1469841,23.8803518 C20.9197127,22.2872285 24.3605343,17.7853087 24.3605343,12.4761278 C24.3605343,5.83725338 18.9783013,0.455758351 12.339427,0.455758351" id="Fill-3"></path>
                </g>
            </g>
        </g>
    </g>
</svg>