<svg width="65" height="52" viewBox="0 0 65 52" xmlns="http://www.w3.org/2000/svg">
  <title>
    Layer_2
  </title>
  <defs>
    <linearGradient x1=".088%" y1="49.373%" x2="164.196%" y2="49.373%" id="a">
      <stop stop-color="#202F91" offset="0%"/>
      <stop stop-color="#232F90" offset="1.166%"/>
      <stop stop-color="#69267E" offset="28.21%"/>
      <stop stop-color="#A01E6F" offset="52.56%"/>
      <stop stop-color="#C81965" offset="73.39%"/>
      <stop stop-color="#E0165E" offset="89.89%"/>
      <stop stop-color="#E9155C" offset="100%"/>
    </linearGradient>
    <linearGradient x1="-114.699%" y1="52.027%" x2="100.243%" y2="52.027%" id="b">
      <stop stop-color="#202F91" offset="0%"/>
      <stop stop-color="#232F90" offset="1.166%"/>
      <stop stop-color="#69267E" offset="28.21%"/>
      <stop stop-color="#A01E6F" offset="52.56%"/>
      <stop stop-color="#C81965" offset="73.39%"/>
      <stop stop-color="#E0165E" offset="89.89%"/>
      <stop stop-color="#E9155C" offset="100%"/>
    </linearGradient>
  </defs>
  <g fill="none" fill-rule="evenodd">
    <g fill="#000">
      <path d="M19.3 49.5l.2-8.6L22 29.6l-1.3.2-1.1.4-2.8.4-2.7.6-.7 1.1-.4 3.1-.4.5h.3l-.5 1.3-.1 1.3.1.2-.4 1.8-.3 2.2-.7 1.1-1.1 1.3h-.5l-.4.4H7.9l-.6.2.1-.6-.8.6-.4.8-.4.3-.5-.5-.4.5h-.4l-1.2.4-.4-.2-1.3.4-.8-.5-.1-2.8 1.2-10.7 1.3-6.5.2-1.7.2-.4L9.5 6.5l2.2-3.4 1.3-.3 2.2 1 1.4.7 1.4 1 2.5 2.7.2 1.7-.5 1.1-2.9 8.9 5.2-.4h2l5.2-13.1 2.2-4 1-.8h.7l1.4.7.8.8.4.2 1.4 1.6 1.1.6.3.5.6.7-.4 3-.8 2-.3 1.1-2.6 5.9-.1.5-.2.4-.3 1.1-.5.9h.4l-.2.9-.7.6-.1.5.4-.2-.7.7-.2 1.4-.6.3.5.5-.2.5-.1.4-.4.8-.1.5-.2.4-.1.4-.2.2.1.2-.2.4.2.2-.2.2-.2 1.4-.9.6h.5l.4-.2-.3.9-.3.5.3.3-.4.7-.1.7-.2-.4-.1.5.3.3-.6 1 .1.2-.2.2h-.4l-.3.9-.1.4.4-.2.2-.7.2.5-.5.7.4.5-.4.2-.1.9.4-.4-.7 1.1.1.4.2-.4-.1.5-.7 1.3h.5l-.6.5.5.2-.2.2h-.4l-.1.5.3.4-.1.5-.4.4.1.4-.2.4h.6l-.3.9.1.2-.4.8-.2.2.2.2-.4.5h-.5l-.4.2-.4-.4.1-.4-.4.7-.2-.2-.4.4h-.6l-.4.4-.1-.5 1.1-.2-1-.2-.2-.2-.5 1.1-.4.8.1-1.1-.4.4v.4l-.2.2.2.2-.5.5H22l-.4.2h-1.4l-1.9-.7 1-1.3zm5.1 0l.4-.4h-.4v.4zm5-9.4l.1-.4-.2.2.1.2zM30 37l.4-.2-.2-.2-.2.4zm.6-.8l-.1-.5v.3l.1.2zM38.7 48.2h-2.6L35 45.9l.2-2.1-.4-.5.1-.5.9-1.2.4-3.3.6-2.5.2-2 .8-2.6v-.4l7.5-22.9 1.2-2.7 2.6-4.1.5-.2 1.9.5 2 1.2 3.2 1.6 1 1.1.7 1.3-.4 1.3-2.2 4.4-5.6 17.3.1-1.3.5-1.1-.5-.6-1.6 4.8-.2.4-.1.4-.2.4.1.2-1 3.1v.4l-.5 1.4 12.1-1.8h3.2l2.3.8.1.7-.6.6-.2 2-.7.7-.1.5-.4.4.2.3-.5.4-.1.4-.2.2.4.5-.5.3-.5 1-.1.4-.6.3.1-.5-1.2.9-1.4.5h-1l-.4.2.2-.5-.4.5h-.4l-.6.2h-.7l-.3.1h-.6l-.5.2H53l-.6.2-3.5.7-1.1.3h-.7l-.5.5-1.5.4-1.1.5"/>
    </g>
    <path d="M19.3 49.5l.2-8.6L22 29.6l-1.3.2-1.1.4-2.8.4-2.7.6-.7 1.1-.4 3.1-.4.5h.3l-.5 1.3-.1 1.3.1.2-.4 1.8-.3 2.2-.7 1.1-1.1 1.3h-.5l-.4.4H7.9l-.6.2.1-.6-.8.6-.4.8-.4.3-.5-.5-.4.5h-.4l-1.2.4-.4-.2-1.3.4-.8-.5-.1-2.8 1.2-10.7 1.3-6.5.2-1.7.2-.4L9.5 6.5l2.2-3.4 1.3-.3 2.2 1 1.4.7 1.4 1 2.5 2.7.2 1.7-.5 1.1-2.9 8.9 5.2-.4h2l5.2-13.1 2.2-4 1-.8h.7l1.4.7.8.8.4.2 1.4 1.6 1.1.6.3.5.6.7-.4 3-.8 2-.3 1.1-2.6 5.9-.1.5-.2.4-.3 1.1-.5.9h.4l-.2.9-.7.6-.1.5.4-.2-.7.7-.2 1.4-.6.3.5.5-.2.5-.1.4-.4.8-.1.5-.2.4-.1.4-.2.2.1.2-.2.4.2.2-.2.2-.2 1.4-.9.6h.5l.4-.2-.3.9-.3.5.3.3-.4.7-.1.7-.2-.4-.1.5.3.3-.6 1 .1.2-.2.2h-.4l-.3.9-.1.4.4-.2.2-.7.2.5-.5.7.4.5-.4.2-.1.9.4-.4-.7 1.1.1.4.2-.4-.1.5-.7 1.3h.5l-.6.5.5.2-.2.2h-.4l-.1.5.3.4-.1.5-.4.4.1.4-.2.4h.6l-.3.9.1.2-.4.8-.2.2.2.2-.4.5h-.5l-.4.2-.4-.4.1-.4-.4.7-.2-.2-.4.4h-.6l-.4.4-.1-.5 1.1-.2-1-.2-.2-.2-.5 1.1-.4.8.1-1.1-.4.4v.4l-.2.2.2.2-.5.5H22l-.4.2h-1.4l-1.9-.7 1-1.3zm5.1 0l.4-.4h-.4v.4zm5-9.4l.1-.4-.2.2.1.2zM30 37l.4-.2-.2-.2-.2.4zm.6-.8l-.1-.5v.3l.1.2z" fill="url(#a)"/>
    <path fill="url(#b)" d="M38.7 48.2h-2.6L35 45.9l.2-2.1-.4-.5.1-.5.9-1.2.4-3.3.6-2.5.2-2 .8-2.6v-.4l7.5-22.9 1.2-2.7 2.6-4.1.5-.2 1.9.5 2 1.2 3.2 1.6 1 1.1.7 1.3-.4 1.3-2.2 4.4-5.6 17.3.1-1.3.5-1.1-.5-.6-1.6 4.8-.2.4-.1.4-.2.4.1.2-1 3.1v.4l-.5 1.4 12.1-1.8h3.2l2.3.8.1.7-.6.6-.2 2-.7.7-.1.5-.4.4.2.3-.5.4-.1.4-.2.2.4.5-.5.3-.5 1-.1.4-.6.3.1-.5-1.2.9-1.4.5h-1l-.4.2.2-.5-.4.5h-.4l-.6.2h-.7l-.3.1h-.6l-.5.2H53l-.6.2-3.5.7-1.1.3h-.7l-.5.5-1.5.4-1.1.5"/>
  </g>
</svg>
