<?xml version="1.0" encoding="UTF-8" standalone="no"?>
<svg width="24px" height="24px" viewBox="0 0 24 24" version="1.1" xmlns="http://www.w3.org/2000/svg" xmlns:xlink="http://www.w3.org/1999/xlink">
    <!-- Generator: Sketch 39.1 (31720) - http://www.bohemiancoding.com/sketch -->
    <title>website</title>
    <desc>Created with Sketch.</desc>
    <defs></defs>
    <g id="Page-1" stroke="none" stroke-width="1" fill="none" fill-rule="evenodd">
        <g id="website" fill="#000000">
            <g id="layer1" transform="translate(0.077936, 0.064911)">
                <path d="M12.5040696,0.097877037 C9.34166963,-0.0574414815 6.30848296,1.02722667 3.96433481,3.15304889 C1.6167037,5.28100444 0.240066667,8.19343556 0.0848518519,11.3537319 C-0.0704666667,14.5162815 1.01417037,17.5496015 3.14211259,19.8950978 C5.26666074,22.240403 8.17895704,23.6171437 11.3413585,23.772477 C17.8705308,24.0931585 23.4388879,19.0437793 23.759451,12.5165778 C24.0800139,5.98933037 19.0332422,0.418558519 12.5040696,0.097877037 L12.5040696,0.097877037 Z M21.8705911,12.4237778 C21.8162207,13.5302815 21.5799836,14.5848296 21.1981761,15.5609333 C20.4031092,15.4573778 19.618472,15.3260148 18.8443532,15.164637 C19.6384572,13.236563 19.9097609,11.1232281 19.6088127,9.00102074 C19.3220274,6.98250222 18.5359384,5.1522637 17.3979233,3.62048593 C20.2392425,5.49737481 22.0494207,8.78250222 21.8705911,12.4237778 L21.8705911,12.4237778 Z M14.2689446,4.12098963 C12.3211215,6.35796889 10.6586919,8.84436889 9.33947704,11.5321333 C8.22363852,10.8854059 7.14947556,10.1739244 6.12113481,9.40470963 C6.95997926,7.81045778 8.21754963,6.46993926 9.79885481,5.51990815 C11.204203,4.67330074 12.7362182,4.22001185 14.2689446,4.12098963 L14.2689446,4.12098963 Z M8.55286963,13.2613778 C7.71154963,15.2516296 7.05209778,17.3413793 6.60045333,19.5092459 C6.53097185,19.4039126 6.46267556,19.2964904 6.39780148,19.1880459 C5.02605333,16.9079867 4.62571259,14.2285926 5.26729778,11.6501481 C5.30285333,11.501363 5.34492741,11.3596874 5.38729778,11.2112578 C6.40233481,11.9515111 7.45860148,12.6360741 8.55285481,13.2613778 L8.55286963,13.2613778 Z M9.27669185,20.5302978 C8.95412889,20.5766681 8.63255852,20.6027422 8.31269037,20.617557 C8.72639556,18.3697348 9.3723363,16.2091407 10.2268548,14.1572889 C12.0661141,15.0761333 13.9981296,15.834237 16.0091228,16.4129037 C15.953271,16.4893481 15.897271,16.5715111 15.8390191,16.6501481 C14.2395076,18.7774681 11.910677,20.1536756 9.27669185,20.5302237 L9.27669185,20.5302978 Z M11.0064252,12.433437 C12.3342326,9.70875407 14.0349296,7.20385037 16.0413599,4.97201185 C16.9095676,6.21324296 17.5082492,7.66531704 17.7352862,9.26439852 C18.0025901,11.1495244 17.7323233,13.0241185 16.9751083,14.7185778 C14.8932114,14.1545333 12.896159,13.3841481 11.0064252,12.433437 L11.0064252,12.433437 Z M5.23427556,4.55664889 C7.20535704,2.76784889 9.75356593,1.85629333 12.4112993,1.98684148 C13.0119517,2.01632296 13.5984704,2.10284148 14.1647668,2.23253037 C12.3324252,2.34853037 10.5019215,2.88789333 8.8237437,3.89768593 C7.04760889,4.96599704 5.61443852,6.44845778 4.62163852,8.20491704 C4.16089778,7.8155837 3.71086815,7.41548 3.27066074,6.99996889 C3.78580148,6.09719852 4.44310519,5.27270815 5.23427556,4.55664889 L5.23427556,4.55664889 Z M1.97483704,11.4465481 C2.01928148,10.5421615 2.18574074,9.66414667 2.46114815,8.82654667 C2.89774074,9.22376148 3.34392,9.61010222 3.80076444,9.98681333 C3.65824593,10.3781911 3.53427556,10.7806948 3.43027556,11.1932281 C2.92255556,13.234963 2.96697037,15.3264444 3.53116444,17.297483 C2.42102963,15.5667556 1.87202222,13.5410074 1.97488148,11.4465481 L1.97483704,11.4465481 Z M11.6941437,21.8894978 C13.9359667,21.1326385 15.8998191,19.7215274 17.3518344,17.7861496 C17.5649603,17.5023422 17.7649307,17.2099867 17.9506197,16.9089793 C18.7197754,17.0791867 19.495835,17.2236904 20.2833018,17.3438681 C18.456605,20.1561052 15.2606634,21.9741052 11.6941437,21.8894978 L11.6941437,21.8894978 Z" id="path244"></path>
            </g>
        </g>
    </g>
</svg>