<svg width="448" height="52" viewBox="0 0 448 52" xmlns="http://www.w3.org/2000/svg">
  <title>
    XMLID_19_
  </title>
  <defs>
    <linearGradient x1=".05%" y1="49.251%" x2="1148.2%" y2="49.251%" id="a">
      <stop stop-color="#202F91" offset="0%"/>
      <stop stop-color="#5A2882" offset="25.4%"/>
      <stop stop-color="#A61E6E" offset="61.46%"/>
      <stop stop-color="#D71761" offset="87.23%"/>
      <stop stop-color="#E9155C" offset="100%"/>
    </linearGradient>
    <linearGradient x1="-86.027%" y1="49.308%" x2="1047.59%" y2="49.308%" id="b">
      <stop stop-color="#202F91" offset="0%"/>
      <stop stop-color="#5A2882" offset="25.4%"/>
      <stop stop-color="#A61E6E" offset="61.46%"/>
      <stop stop-color="#D71761" offset="87.23%"/>
      <stop stop-color="#E9155C" offset="100%"/>
    </linearGradient>
    <linearGradient x1="-209.873%" y1="50.777%" x2="1225.314%" y2="50.777%" id="c">
      <stop stop-color="#202F91" offset="0%"/>
      <stop stop-color="#5A2882" offset="25.4%"/>
      <stop stop-color="#A61E6E" offset="61.46%"/>
      <stop stop-color="#D71761" offset="87.23%"/>
      <stop stop-color="#E9155C" offset="100%"/>
    </linearGradient>
    <linearGradient x1="-288.472%" y1="48.704%" x2="1028.523%" y2="48.704%" id="d">
      <stop stop-color="#202F91" offset="0%"/>
      <stop stop-color="#5A2882" offset="25.4%"/>
      <stop stop-color="#A61E6E" offset="61.46%"/>
      <stop stop-color="#D71761" offset="87.23%"/>
      <stop stop-color="#E9155C" offset="100%"/>
    </linearGradient>
    <linearGradient x1="-330.027%" y1="49.547%" x2="821.074%" y2="49.547%" id="e">
      <stop stop-color="#202F91" offset="0%"/>
      <stop stop-color="#5A2882" offset="25.4%"/>
      <stop stop-color="#A61E6E" offset="61.46%"/>
      <stop stop-color="#D71761" offset="87.23%"/>
      <stop stop-color="#E9155C" offset="100%"/>
    </linearGradient>
    <linearGradient x1="-411.09%" y1="49.203%" x2="722.526%" y2="49.203%" id="f">
      <stop stop-color="#202F91" offset="0%"/>
      <stop stop-color="#5A2882" offset="25.4%"/>
      <stop stop-color="#A61E6E" offset="61.46%"/>
      <stop stop-color="#D71761" offset="87.23%"/>
      <stop stop-color="#E9155C" offset="100%"/>
    </linearGradient>
    <linearGradient x1="-459.528%" y1="52.637%" x2="599.049%" y2="52.637%" id="g">
      <stop stop-color="#202F91" offset="0%"/>
      <stop stop-color="#5A2882" offset="25.4%"/>
      <stop stop-color="#A61E6E" offset="61.46%"/>
      <stop stop-color="#D71761" offset="87.23%"/>
      <stop stop-color="#E9155C" offset="100%"/>
    </linearGradient>
    <linearGradient x1="-787.434%" y1="52%" x2="725.331%" y2="52%" id="h">
      <stop stop-color="#202F91" offset="0%"/>
      <stop stop-color="#5A2882" offset="25.4%"/>
      <stop stop-color="#A61E6E" offset="61.46%"/>
      <stop stop-color="#D71761" offset="87.23%"/>
      <stop stop-color="#E9155C" offset="100%"/>
    </linearGradient>
    <linearGradient x1="-845.596%" y1="50.777%" x2="594.205%" y2="50.777%" id="i">
      <stop stop-color="#202F91" offset="0%"/>
      <stop stop-color="#5A2882" offset="25.4%"/>
      <stop stop-color="#A61E6E" offset="61.46%"/>
      <stop stop-color="#D71761" offset="87.23%"/>
      <stop stop-color="#E9155C" offset="100%"/>
    </linearGradient>
    <linearGradient x1="-816.521%" y1="51.301%" x2="420.436%" y2="51.301%" id="j">
      <stop stop-color="#202F91" offset="0%"/>
      <stop stop-color="#5A2882" offset="25.4%"/>
      <stop stop-color="#A61E6E" offset="61.46%"/>
      <stop stop-color="#D71761" offset="87.23%"/>
      <stop stop-color="#E9155C" offset="100%"/>
    </linearGradient>
    <linearGradient x1="-774.422%" y1="52.637%" x2="284.156%" y2="52.637%" id="k">
      <stop stop-color="#202F91" offset="0%"/>
      <stop stop-color="#5A2882" offset="25.4%"/>
      <stop stop-color="#A61E6E" offset="61.46%"/>
      <stop stop-color="#D71761" offset="87.23%"/>
      <stop stop-color="#E9155C" offset="100%"/>
    </linearGradient>
    <linearGradient x1="-928.305%" y1="49.203%" x2="205.311%" y2="49.203%" id="l">
      <stop stop-color="#202F91" offset="0%"/>
      <stop stop-color="#5A2882" offset="25.4%"/>
      <stop stop-color="#A61E6E" offset="61.46%"/>
      <stop stop-color="#D71761" offset="87.23%"/>
      <stop stop-color="#E9155C" offset="100%"/>
    </linearGradient>
    <linearGradient x1="-877.687%" y1="51.105%" x2="99.995%" y2="51.105%" id="m">
      <stop stop-color="#202F91" offset="0%"/>
      <stop stop-color="#5A2882" offset="25.4%"/>
      <stop stop-color="#A61E6E" offset="61.46%"/>
      <stop stop-color="#D71761" offset="87.23%"/>
      <stop stop-color="#E9155C" offset="100%"/>
    </linearGradient>
  </defs>
  <g fill="none" fill-rule="evenodd">
    <path d="M18.6 49.3l.2-8.6 2.5-11.3-1.3.2-1.2.4-2.8.3-2.7.6-.7 1.1-.4 3.1-.4.5h.3l-.4 1.4-.1 1.3.1.2-.4 1.8-.3 2.2-.7 1.1-1.1 1.3h-.5l-.4.4H7.2l-.6.2.1-.6-.8.6-.4.8-.4.3-.5-.6-.4.5h-.4l-1.2.4-.4-.2-1.3.4-.8-.5-.1-2.8 1.2-10.7 1.3-6.5.2-1.7.2-.4L8.8 6.2 11 2.8l1.3-.3 2.2 1 1.4.7 1.4 1 2.5 2.7.2 1.7-.5 1.1-2.9 8.9 5.2-.4h2L29 6.1l2.2-4 1-.8h.8l1.4.7.8.8.4.2L37 4.6l1.1.6.3.5.6.7-.4 3-.8 2-.3 1.1-2.6 5.9v.6l-.2.4-.3 1.1-.5.9h.4l-.3.9-.7.6-.1.5.4-.2-.6.8-.2 1.4-.6.3.5.5-.2.5-.1.4-.4.8-.1.5-.2.4-.1.4-.2.2.1.2v.4l.2.2-.2.2-.2 1.4-.9.6h.5l.4-.2-.3.9-.3.5.3.3-.4.7-.1.7-.2-.4-.1.5.3.3-.6 1 .1.2v.3h-.4l-.3.9-.1.4.4-.2.2-.7.2.5-.5.7.4.5-.4.2-.1.9.4-.4-.7 1.1.1.4.2-.4-.1.5-.7 1.3h.5l-.6.5.5.2v.2h-.4l-.1.5.3.4-.1.5-.4.4.1.4-.2.4h.6l-.3.9.1.2-.4.8-.2.1.2.2-.4.5h-.5l-.3.2-.3-.3.1-.4-.4.7-.2-.2-.4.4h-.6l-.4.4-.1-.5 1.1-.2-1-.2-.2-.2-.5 1.1-.4.8.1-1.1-.4.4v.4l-.2.2.2.2-.5.5h-.6l-.4.2h-1.4l-1.9-.7v-1.5zm5.1 0l.4-.4h-.4v.4zm5-9.4l.1-.4-.2.2.1.2zm.6-3.1l.4-.2-.2-.2-.2.4zm.6-.8l-.1-.5v.4l.1.1z" fill="url(#a)"/>
    <path d="M34.2 48.6l-.2-1.8L44.3 9.1l2-5.1 1.6-1.2h.8l1.3.3 1.2.7 1 .4 4.3-.8 7.6-.6 7.1.4.2.4L72.6 6l.3 1.3-.8.6.2 1.1.2.2.1.7.1-.3.4-.4-.1.9.2.4-.1.4.4.4-.4.7-.1-.5-.7.2h-8.9l-.7.2h-.5l-1.4.4h-2l-.8.2h-.8l-2.2.4-.8.3-.5 2.3-.3.5-1 3.3 5.1-1h2.6l1.6.5 1.2 1.3-.1 1.6-.4.4-.4 1.5-.2-.7.1.8.3.2-.4.2.1.4.4-.2-.5.7v.5l.3-.2-.1.6.2.5h-.8l-.4.5h-.5l-1.1.5h-1.1l-7.5 2.2h-1.4l-2 6.8-.2.6 7.6-2.8 4.4-1.1H63l2.6 1.4 1.3 1.4-.2.2v.3l.4-.2.4.7h-.3l-.4.4-1.4.4-.2-.2-.2.2-.5.2-.8.5-.5.5-3 .8-1.1.2-3.7 1.1-.4.2-3.9 1.7-2.2 1.3-1.9 1.6-1.4 1.5-4.1 2.2-1.9.4H35l-.5-.2-.3-1.1zm30.1-12.2l.2-.2-.2-.1v.3zm8.7-28h-.3l-.2.3.1-.8.4.5z" fill="url(#b)"/>
    <path d="M66.1 44.7L81.9 7.6l3.4-4.7 1-.2.7-1 1-.1.4.2.4.1.5.5 1.9 1.1 1.9 1.9 1.6 4.9.8 6.7.9 16.4-.1.6.1 2.6-.3.2-.1.6.7-.5L96 38l.4.1v1.1l-.1.5-.3.3-.2.1.1.4-.2.2-.1.4h.4l-.2 1.1-.3.4.5.1-.2 1.1-.5 1.3.4.2-.4 1.2-.5.5-.5-.1-.5.7-.1-.2-.7-.1-.9.6-1.8-.2-.4.2-.3-.2-.2-.3-.3.4-.4.3-.2-.4-.4.3-1.1-.1-.9.4-.5-.1-.6-.8.4-5.9-.4-.8-.1.5h-.3l-.4.1-.3-.1-.7.3-.1-.2-2.2.7-2.4-.3-.4.5-.3.9-.8 1.6-.1.6-.5 1.2-.4 1.4-.8 1-1.1.6-1.6.2-2.3-.3-1.3-.6-.6.2-1.1-.1-.7.1-1-.5.6-3.8zm19.7-13l-.2-7.8-3.1 8 3.3-.2zm8.5 4.1l.5.1-.2-1-.3.9zm.1 1.5l.1-.2.3-.1.2.2.2-.8-.7.2-.1.7zm.4 4.7l.1-.4-.3-.1.2.5zm0-7.4h.2l.2-.2-.4.2zm.1 5.4l.4.1-.2-.4-.2.3z" fill="url(#c)"/>
    <path fill="url(#d)" d="M98.3 48.3l.7-4.2 1.8-8 6.7-21.7-.7.4-1.6-.2.1-.5-.7-.7-1.1-.1-1.3-1.1-1-.4-.5-1.6-.4-.2.1-.2-.3-1.4.2-1 1.3-1.2 7.9-2.1.4-.2h.3l.4-.1h.5l1.4-.4 5.3-.5.6-.4 10 .5 1.5.7 1.9 2.1.2 1.3-.1.3.2.1-.2 1-.7.5h-.2l.1-.5-.5.2-.1.4.8.1-.3.4.1.4-.5.4-.3-.1-.2.4h-.4l-.5 1-.6.4-1.9.3-2.8-.2-1 .4-.1.4-2 .2-1-.1-1.4 3.6-.2 1.1-1.9 4.9-5.9 19.2-.5 2.3-.8 1-.4 1-1 .8-.7.4-.5.4-1.2.7-.2-.2-.1.2-.6-.1-2.2.8-1.6.9-.3-.1-1.5.8-.7-.8"/>
    <path d="M147 49.3l.2-8.6 2.5-11.3-1.3.2-1.1.4-2.8.4-2.7.6-.8 1-.4 3.1-.4.5h.3l-.5 1.3-.1 1.3.1.2-.4 1.8-.3 2.2-.7 1.1-1.1 1.3h-.5l-.4.4h-1.1l-.6.2.1-.6-.8.6-.4.8-.4.3-.4-.5-.4.5h-.4l-1.2.4-.4-.2-1.3.4-.8-.5-.1-2.8 1.2-10.7 1.3-6.5.2-1.7.2-.4 5.9-18.3 2.2-3.4 1.3-.3 2.2 1 1.4.7 1.4 1 2.5 2.7.2 1.7-.5 1.1-2.9 8.9 5.2-.4h2l5.2-13.1 2.2-4 1-.8h.7l1.4.7.8.8.4.2 1.4 1.6 1.1.6.3.5.6.7-.4 3-.8 2-.3 1.1-2.6 5.9-.1.5-.2.4-.3 1.1-.5.9h.4l-.2.9-.7.6-.1.5.4-.2-.7.7-.2 1.4-.6.3.5.5-.2.5-.1.4-.4.8-.1.5-.2.4-.1.4-.2.2.1.2-.2.4.2.2-.2.2-.2 1.4-.9.6h.5l.4-.2-.3.9-.3.5.3.3-.4.7-.1.7-.2-.4-.1.5.3.3-.6 1 .1.2-.2.2h.2l-.3.9-.1.4.4-.2.2-.7.2.5-.5.7.4.5-.4.2-.1.9.4-.4-.7 1.1.1.4.2-.4-.1.5-.7 1.3h.5l-.6.5.5.2-.2.2h-.2l-.1.5.3.4-.1.5-.4.4.1.4-.2.4h.6l-.3.9.1.2-.4.8-.2.2.2.2-.4.5h-.5l-.4.2-.4-.4.1-.4-.4.7-.2-.2-.4.4h-.6l-.4.4-.1-.5 1.1-.2-1-.2-.2-.2-.5 1.1-.4.8.1-1.1-.4.4v.4l-.2.2.2.2-.5.5h-.6l-.4.2h-1.4l-1.9-.7.2-1.2zm5.1 0l.4-.4h-.4v.4zm5-9.4l.1-.4-.2.2.1.2zm.6-3.1l.4-.2-.2-.2-.2.4zm.6-.8l-.1-.5v.4l.1.1z" fill="url(#e)"/>
    <path d="M162.6 48.6l-.2-1.8 10.3-37.7 2-5.1 1.6-1.2h.8l1.3.3 1.2.7 1 .4 4.3-.8 7.6-.6 7.1.4.2.4L201 6l.3 1.3-.8.6.2 1.1.2.2.1.7.1-.3.4-.4-.1.8.2.4-.1.4.4.4-.4.7-.1-.4-.7.2h-8.9l-.7.2h-.5l-1.4.4h-2l-.8.3h-.8l-2.2.4-.8.3-.5 2.3-.2.5-1 3.3 5.1-1h2.6l1.6.5 1.2 1.3-.1 1.6-.4.4-.3 1.5-.2-.7.1.8.3.2-.4.2.1.4.4-.2-.5.7v.5l.3-.2-.1.5.2.5h-.8l-.5.5h-.5l-1.1.5h-1.1l-7.5 2.2h-1.4l-2 6.8-.1.6 7.6-2.8 4.4-1.1h3.7l2.6 1.4 1.3 1.4-.2.2v.3l.4-.2.4.7h-.3l-.4.4-1.4.4-.2-.2-.2.2-.5.2-.8.5-.5.5-3 .8-1.1.2-3.7 1.1-.5.3-3.9 1.7-2.2 1.3-1.9 1.6-1.4 1.5-4.1 2.2-1.9.4h-4.6l-.5-.2-.3-1.2zm30.1-12.2l.2-.2-.2-.1v.3zm8.7-28h-.3l-.2.3.1-.8.4.5z" fill="url(#f)"/>
    <path d="M194.4 47.2l9.5-33.4 3-7.1.5-.8-.7-.8v-.8l.5-.8 4.2-1.7 4.4-1.2h5.2l4.4 1.2 2.8 1.3 3.1 1.9 3.1 3.5.6 1 .4.3v.2l.7 1v.4l.4 1.1-.1 2.3.3.2-.4.5-.1.7-.4.4v.5l-2.4 3-1.9 1.2-.9.8-1 .7-.3.4h-.5l-.4.4-.5.1-1.6 1.3-.4-.2-1.4 1.3v-.5l-1.7 1.1-1.4.4v.4h-.7l-.2.4-.2-.2-.6.2-.8.7-.4-.2-.7.2.1-.4-.7.4 3.6 5 1.6 1.7 7.4 9.4.9 1.7v.4l-.2.2v-.2l-.8-.2-.6.4-.3-.4-.3.3-.5-.3-.4.2-.4-.2v.4h-.4v-.5l-.5.4v-.2l-.5-.2-.5.5h-2.5l-.8-.5-8-9.2-3.3-4.7-3.4 11.6-1.3 3.3-.7.5-.8.2-1.6.7h-2.8l-.7-.4h-1.3l-1-.2-.7.2-.4.4-.6-.2-.7-.1-.3-1.4zm19.5-26.6l3.3-1.5 8.5-4.9 1.1-1.7.1-1.6-.2-1-1-1.6-2.4-1.6-1.4-.2-3.2.4-.6.5.3.7-.1 1.9-1.8 3.2-.8 2.3-.2.2-1.5 4.2v.7h-.1zm4.4 7.4l.2-.1-.2-.2v.3z" fill="url(#g)"/>
    <path fill="url(#h)" d="M237 48h-2.6l-1.1-2.3.2-2.1-.4-.5.1-.5.9-1.2.4-3.3.6-2.5.2-2 .8-2.6v-.4l7.5-22.9 1.2-2.7 2.6-4.1.5-.2 1.9.5 2 1.2L255 4l1 1.1.7 1.3-.4 1.3-2.2 4.4-5.6 17.3.1-1.3.4-1.1-.5-.6-1.6 4.8-.2.4-.1.4-.2.4.1.2-1 3.1v.4l-.5 1.4 12.1-1.8h3.2l2.3.8.1.7-.6.6-.2 2-.7.7-.1.5-.4.4.2.3-.5.4-.1.4-.2.2.4.5-.5.3-.5 1-.1.4-.6.3.1-.5-1.2.9-1.4.5h-1l-.4.2.2-.5-.4.5h-.4l-.6.2h-.7l-.3.1h-.6l-.5.2h-.4l-.6.2-3.5.7-1.1.3h-.7l-.5.5-1.5.4-1.1.5"/>
    <path d="M263.5 44.7l15.8-37.1 3.4-4.7 1-.2.7-1 1-.1.4.2.4.1.5.5 1.9 1.1 1.9 1.9 1.6 4.9.8 6.7.9 16.4-.1.6.1 2.6-.3.2-.1.6.7-.5-.7 1.1.4.1v1.1l-.1.5.1.4-.2.1.1.4-.2.2-.1.4h.4l-.2 1.1-.3.4.5.1-.2 1.1-.5 1.3.4.2-.4 1.2-.5.5-.5-.1-.5.7-.1-.2-.7-.1-.9.6-1.8-.2-.4.2-.3-.2-.2-.3-.3.4-.4.3-.2-.4-.4.3-1.1-.1-.9.4-.5-.1-.6-.8.4-5.9-.4-.8-.1.5h-.3l-.4.1-.3-.1-.7.3-.1-.2-2.5.6-2.4-.3-.4.5-.3.9-.8 1.6-.1.6-.5 1.2-.4 1.4-.8 1-1.1.6-1.6.2-2.3-.3-1.3-.6-.6.2-1.1-.1-.7.1-1-.5.5-3.8zm19.7-13l-.2-7.8-3.1 8 3.3-.2zm8.5 4.1l.5.1-.2-1-.3.9zm.1 1.5l.1-.2.3-.1.2.2.2-.8-.7.2-.1.7zm.4 4.7l.1-.4-.3-.1.2.5zm0-7.4h.2l.2-.2-.4.2zm.1 5.4l.4.1-.2-.4-.2.3z" fill="url(#i)"/>
    <path d="M305.4 47.2l-1.6-.2-3.2.3-1.3-.7-1.6-1.8-1.1-2.8-1-6.9.7-8.2 2.6-10.9 2.3-6.2 1.7-3.1 2-2.9.8-.4 3.5 1.9 2.4 2.7.8 3.9-.7 1.6-.4.7-.1.7-2 7-1 5.5-.3.6-.1 1.3-.4 2-.1 6.1.2.5 2.6-3.5 5.9-11 4.5-12.5.1-.7-.2-1L321 6l.3-1.2 1.1-1.1.2.1-.1.2.9-.4.4.1h.8l.2.2-.2.1.2.3-.1.6.5-1h1l.8.4-.4.3.5.6-.2.2-.7-.3.5 1h.8l.2.8.3.4.1-.8h.4l-.2 2.5h.7l.9-1.4-.1.4-.4.9 1.1-.7-.4.5-.1.4.2.2.7-.6-.1.2.4.4-.1.3.2.4-.1 1.2.4.2.2 1.4-.5.9-.5 1.8-.3.7-.3 1.6-1.4 4.6-1.7 3.8-.3.4v.2l-1.8 4-1.1 2.2-.5 1.3-1 1.2-.4.5-.4.5-1.3 2.3-5.2 6.4-1.4 1.1h-.2l-.8.7-.9.3-3.5.2-1.7-.4h-1.2v.1zm18.3-42.9l.2-.2-.6-.3V4l.4.3zm2 .4l.5-.8-.8.4.3.4zm3.6 4.7h.4l.1-.8-.5.8zm.4-2.5l-.2.6.1-.8.1.2z" fill="url(#j)"/>
    <path d="M327.6 47.2l9.5-33.4 3-7.1.5-.8-.7-.8v-.8l.5-.8 4.2-1.7L349 .6h5.2l4.4 1.2 2.8 1.3 3.1 1.9 3.1 3.5.6 1 .4.3v.2l.7 1v.4l.4 1.1-.1 2.3.3.2-.4.5-.1.7-.4.4v.5l-2.4 3-1.9 1.2-.9.8-1 .7-.3.4h-.5l-.4.4-.5.1-1.6 1.3-.4-.2-1.4 1.3v-.5l-1.7 1.1-1.4.4v.4h-.7l-.2.4-.2-.2-.6.2-.8.7-.4-.2-.7.2.1-.4-.7.4 3.6 5 1.6 1.7 7.4 9.4.9 1.7v.4l-.2.2v-.2l-.8-.2-.6.4-.3-.4-.3.3-.5-.3-.4.2-.4-.2v.4h-.4v-.5l-.5.4v-.2l-.5-.2-.5.5H356l-.8-.5-8-9.2-3.3-4.7-3.4 11.6-1.3 3.3-.7.5-.8.2-1.6.7h-2.8l-.7-.4h-1.3l-1-.2-.7.2-.4.4-.6-.2-.7-.1-.3-1.4zM347 20.6l3.3-1.5 8.5-4.9 1.1-1.7.1-1.6-.2-1-1-1.6-2.4-1.6-1.4-.2-3.2.4-.6.5.3.7-.1 1.9-1.8 3.2-.8 2.3-.2.2-1.5 4.2v.7h-.1zm4.4 7.4l.2-.1-.2-.2v.3z" fill="url(#k)"/>
    <path d="M366.9 48.6l-.2-1.8L377 9.1l2-5.1 1.6-1.2h.8l1.3.3 1.2.7 1 .4 4.3-.8 7.6-.6 7.1.4.2.4 1.2 2.4.3 1.3-.8.6.2 1.1.2.2.1.7.1-.3.4-.4-.1.8.2.4-.1.4.4.4-.4.7-.1-.4-.7.2h-9l-.7.2h-.5l-1.4.4h-2l-.8.3h-.8l-2.2.4-.8.3-.5 2.3-.2.5-1 3.3 5.1-1h2.6l1.6.5 1.2 1.3-.1 1.6-.4.4-.3 1.5-.2-.7.1.8.3.2-.4.2.1.4.4-.2-.5.7v.5l.3-.2-.1.5.2.5h-.8l-.5.5h-.5l-1.1.5H391l-7.5 2.2H382l-2 6.8-.1.6 7.6-2.8 4.4-1.1h3.7l2.6 1.4 1.3 1.4-.2.2v.3l.4-.2.4.7h-.3l-.4.4-1.4.4-.2-.2-.2.2-.5.2-.8.5-.5.5-3 .8-1.1.2L388 41l-.5.3-3.9 1.7-2.2 1.3-1.9 1.6-1.4 1.5-4.1 2.2-1.9.4h-4.6l-.5-.2-.1-1.2zM397 36.4l.2-.2-.2-.1v.3zm8.7-28h-.3l-.2.3.1-.8.4.5z" fill="url(#l)"/>
    <path d="M402 46.2l2.8-12.5 7.6-26 1.7-4.8 1-.7.2-.4h2.6l1 .4 1.3.4 1.1.2 1.4.9.7.7.4 1.9.5.8 1.6 14 .4 1.5-.2 1.5.4-.2v1.5l.1.4-.1.4.2.1.5 2.8 6.1-12.8 4.4-7.2.6-1.2 1.4-1.6.1-.6h.4l.3-.6h.8l.1-.7 1 .2.6-.6h.4l-.5.6.5-.2.7.4.7-.6-.2.9-.7.5.1-.5h-.4l-1.1.7-.2.5h-.5l-.6.5.8-.2-.2 1.3.7-1.2 1.2-.5.2.5-.4.4-.1.4h.2l.7-.7.1.4-1.2 1h.4l.5-.4.2.3.8-.7.2-1-.3.3.2-.5.7-1h.3V6l-.2.7-.2.5.1.4-.2 1-.9 1-.1 1.4.6-.4.3-1.9.1.8.4-1.5.5-.7-.2 1 .1.2v2l.4-.2-.6.6.3.3-.7 1-.5.4-.1.5-1 1.5h-.4l-.3 1.5-1 1.7-.1.6-.7.5-.6 1.7-.3.5-.5 1.7-1.5 3.2-1 2.6-.5.8-.5 2.2-.5 1.2-.9 2.6-.7 2.6-.4.5.1.2-.2.1.1.2-.2 1-.7 1.1h.4l-.1.7-.3.2-.5 2.3-.6.5-.1-.2h-.3l-.3-.3-.3.7h-.2l-.2.4-.8.5-.2-.2.1-.5-.1-.2.1-.6-.7 1.6-.4-.3-.3.7-.8-.5-.2-.8-.4.9h-.4l-.3.7-.8.2-.7.5h-2.9l-.8-2.4-.9-1.2-2.2-6.2-1.6-7.6-.1 1.2-2.3 7.9-1.5 3.8-.8 1.1-1.3 1.4-2 1.1h-.7l-.4.2.1-.4-.9.8h-.3l-.1-.2-1 .7h-.2l-.5.7-.6.3h-.2l-.9.6h-.7l-.3-1v-2zm26.3-.9l.1-.7-.5.5.4.2zm.5.3l.2-.2-.1-.2-.4.2.3.2zm1.3 0l.5-1-.4.2-.1.8zm1.7-1.7h.4l-.1-.5-.2.2-.1.3zm2-6.6h.2l-.2-.4v.4zm3.5-16.9l.2.2v-.4l-.2.2zm2.2-1.7h.4l-.2-.4-.2.4zm1.6-3.1h.5l.2-1.3-.7.7v.6zm.4 1h.4l-.1-.3-.3.3zm.1-5.1l.2-.2-.2-.2v.4zm.9-3.4l-.2.4-.2.2.2.3.2-.9zm.6 4.9l.2-.3-.2-.4-.1.4.1.3zm.2-4l.6-.7-.5.4-.1.3zm.1 2.1l.2-.2.2-.4-.4.6zm.3-1.8l.1-.2.1-.5-.2.7zm.3 3.1l.1.2.1-.6-.2.4zm1-.7l.3-.9.7-1-.4.2-.2-.2-.2.7-.8 1 .5-.2.1.4zm2.4-5.4l-.6.8.2-.8h.4zm-.3 1.2h.3l-.3.8v-.8zm.7 1.5l-.2.2.1-.5.1.3z" fill="url(#m)"/>
  </g>
</svg>
